<svg xmlns="http://www.w3.org/2000/svg" viewBox="0 0 800 140" width="800" height="140">
  <defs>
    <!-- Obsidian gradients -->
    <radialGradient id="obl" cx="0" cy="0" gradientTransform="matrix(-59 -225 150 -39 161.4 470)" gradientUnits="userSpaceOnUse" r="1">
      <stop offset="0" stop-color="#fff" stop-opacity=".4"/><stop offset="1" stop-opacity=".1"/>
    </radialGradient>
    <radialGradient id="otr" cx="0" cy="0" gradientTransform="matrix(50 -379 280 37 360 374.2)" gradientUnits="userSpaceOnUse" r="1">
      <stop offset="0" stop-color="#fff" stop-opacity=".6"/><stop offset="1" stop-color="#fff" stop-opacity=".1"/>
    </radialGradient>
    <radialGradient id="otl" cx="0" cy="0" gradientTransform="matrix(69 -319 218 47 175.4 307)" gradientUnits="userSpaceOnUse" r="1">
      <stop offset="0" stop-color="#fff" stop-opacity=".8"/><stop offset="1" stop-color="#fff" stop-opacity=".4"/>
    </radialGradient>
    <radialGradient id="obr" cx="0" cy="0" gradientTransform="matrix(-96 -163 187 -111 335.3 512.2)" gradientUnits="userSpaceOnUse" r="1">
      <stop offset="0" stop-color="#fff" stop-opacity=".3"/><stop offset="1" stop-opacity=".3"/>
    </radialGradient>
  </defs>

  <!-- Obsidian icon (scaled down, positioned left) -->
  <g transform="translate(240, 10) scale(0.234375)">
    <clipPath id="oc"><path d="M.2.2h512v512H.2z"/></clipPath>
    <g clip-path="url(#oc)">
      <path d="M382.3 475.6c-3.1 23.4-26 41.6-48.7 35.3-32.4-8.9-69.9-22.8-103.6-25.4l-51.7-4a34 34 0 0 1-22-10.2l-89-91.7a34 34 0 0 1-6.7-37.7s55-121 57.1-127.3c2-6.3 9.6-61.2 14-90.6 1.2-7.9 5-15 11-20.3L248 8.9a34.1 34.1 0 0 1 49.6 4.3L386 125.6a37 37 0 0 1 7.6 22.4c0 21.3 1.8 65 13.6 93.2 11.5 27.3 32.5 57 43.5 71.5a17.3 17.3 0 0 1 1.3 19.2 1494 1494 0 0 1-44.8 70.6c-15 22.3-21.9 49.9-25 73.1z" fill="#6c31e3"/>
      <path d="M165.9 478.3c41.4-84 40.2-144.2 22.6-187-16.2-39.6-46.3-64.5-70-80-.6 2.3-1.3 4.4-2.2 6.5L60.6 342a34 34 0 0 0 6.6 37.7l89.1 91.7a34 34 0 0 0 9.6 7z" fill="url(#obl)"/>
      <path d="M278.4 307.8c11.2 1.2 22.2 3.6 32.8 7.6 34 12.7 65 41.2 90.5 96.3 1.8-3.1 3.6-6.2 5.6-9.2a1536 1536 0 0 0 44.8-70.6 17 17 0 0 0-1.3-19.2c-11-14.6-32-44.2-43.5-71.5-11.8-28.2-13.5-72-13.6-93.2 0-8.1-2.6-16-7.6-22.4L297.6 13.2a34 34 0 0 0-1.5-1.7 96 96 0 0 1 2 54 198.3 198.3 0 0 1-17.6 41.3l-7.2 14.2a171 171 0 0 0-19.4 71c-1.2 29.4 4.8 66.4 24.5 115.8z" fill="url(#otr)"/>
      <path d="M278.4 307.8c-19.7-49.4-25.8-86.4-24.5-115.9a171 171 0 0 1 19.4-71c2.3-4.8 4.8-9.5 7.2-14.1 7.1-13.9 14-27 17.6-41.4a96 96 0 0 0-2-54A34.1 34.1 0 0 0 248 9l-105.4 94.8a34.1 34.1 0 0 0-10.9 20.3l-12.8 85-.5 2.3c23.8 15.5 54 40.4 70.1 80a147 147 0 0 1 7.8 24.8c28-6.8 55.7-11 82.1-8.3z" fill="url(#otl)"/>
      <path d="M333.6 511c22.7 6.2 45.6-12 48.7-35.4a187 187 0 0 1 19.4-63.9c-25.6-55-56.5-83.6-90.4-96.3-36-13.4-75.2-9-115 .7 8.9 40.4 3.6 93.3-30.4 162.2 4 1.8 8.1 3 12.5 3.3 0 0 24.4 2 53.6 4.1 29 2 72.4 17.1 101.6 25.2z" fill="url(#obr)"/>
    </g>
  </g>

  <!-- Plus sign -->
  <text x="400" y="82" text-anchor="middle" font-family="system-ui, -apple-system, sans-serif" font-size="36" font-weight="300" fill="#888">+</text>

  <!-- Claude icon (scaled, positioned right) -->
  <g transform="translate(428, 10) scale(7.5)">
    <path fill="#D97706" d="m3.127 10.604 3.135-1.76.053-.153-.053-.085H6.11l-.525-.032-1.791-.048-1.554-.065-1.505-.08-.38-.081L0 7.832l.036-.234.32-.214.455.04 1.009.069 1.513.105 1.097.064 1.626.17h.259l.036-.105-.089-.065-.068-.064-1.566-1.062-1.695-1.121-.887-.646-.48-.327-.243-.306-.104-.67.435-.48.585.04.15.04.593.456 1.267.981 1.654 1.218.242.202.097-.068.012-.049-.109-.181-.9-1.626-.96-1.655-.428-.686-.113-.411a2 2 0 0 1-.068-.484l.496-.674L4.446 0l.662.089.279.242.411.94.666 1.48 1.033 2.014.302.597.162.553.06.17h.105v-.097l.085-1.134.157-1.392.154-1.792.052-.504.25-.605.497-.327.387.186.319.456-.045.294-.19 1.23-.37 1.93-.243 1.29h.142l.161-.16.654-.868 1.097-1.372.484-.545.565-.601.363-.287h.686l.505.751-.226.775-.707.895-.585.759-.839 1.13-.524.904.048.072.125-.012 1.897-.403 1.024-.186 1.223-.21.553.258.06.263-.218.536-1.307.323-1.533.307-2.284.54-.028.02.032.04 1.029.098.44.024h1.077l2.005.15.525.346.315.424-.053.323-.807.411-3.631-.863-.872-.218h-.12v.073l.726.71 1.331 1.202 1.667 1.55.084.383-.214.302-.226-.032-1.464-1.101-.565-.497-1.28-1.077h-.084v.113l.295.432 1.557 2.34.08.718-.112.234-.404.141-.444-.08-.911-1.28-.94-1.44-.759-1.291-.093.053-.448 4.821-.21.246-.484.186-.403-.307-.214-.496.214-.98.258-1.28.21-1.016.19-1.263.112-.42-.008-.028-.092.012-.953 1.307-1.448 1.957-1.146 1.227-.274.109-.477-.247.045-.44.266-.39 1.586-2.018.956-1.25.617-.723-.004-.105h-.036l-4.212 2.736-.75.096-.324-.302.04-.496.154-.162 1.267-.871z"/>
  </g>
</svg>
